<mxfile host="65bd71144e">
    <diagram id="LMw0r8wa6g4G194R925z" name="Page-1">
        <mxGraphModel dx="1209" dy="1658" grid="1" gridSize="10" guides="1" tooltips="1" connect="1" arrows="1" fold="1" page="1" pageScale="1" pageWidth="850" pageHeight="1100" math="0" shadow="0">
            <root>
                <mxCell id="0"/>
                <mxCell id="1" parent="0"/>
                <mxCell id="2" value="block pointer" style="rounded=0;whiteSpace=wrap;html=1;fontSize=18;" vertex="1" parent="1">
                    <mxGeometry x="100" y="90" width="140" height="40" as="geometry"/>
                </mxCell>
                <mxCell id="3" value="block pointer" style="rounded=0;whiteSpace=wrap;html=1;fontSize=18;" vertex="1" parent="1">
                    <mxGeometry x="100" y="130" width="140" height="40" as="geometry"/>
                </mxCell>
                <mxCell id="4" value="block pointer" style="rounded=0;whiteSpace=wrap;html=1;fontSize=18;" vertex="1" parent="1">
                    <mxGeometry x="100" y="170" width="140" height="40" as="geometry"/>
                </mxCell>
                <mxCell id="9" value="block&lt;br&gt;accessed" style="edgeStyle=orthogonalEdgeStyle;html=1;exitX=0;exitY=0.5;exitDx=0;exitDy=0;fontSize=18;endArrow=open;endFill=0;endSize=16;labelBackgroundColor=none;entryX=0;entryY=0.5;entryDx=0;entryDy=0;" edge="1" parent="1" source="5" target="23">
                    <mxGeometry relative="1" as="geometry">
                        <mxPoint x="110" y="70" as="targetPoint"/>
                        <Array as="points">
                            <mxPoint x="40" y="230"/>
                            <mxPoint x="40" y="70"/>
                        </Array>
                    </mxGeometry>
                </mxCell>
                <mxCell id="5" value="block pointer" style="rounded=0;whiteSpace=wrap;html=1;fontSize=18;" vertex="1" parent="1">
                    <mxGeometry x="100" y="210" width="140" height="40" as="geometry"/>
                </mxCell>
                <mxCell id="6" value="block pointer" style="rounded=0;whiteSpace=wrap;html=1;fontSize=18;" vertex="1" parent="1">
                    <mxGeometry x="100" y="250" width="140" height="40" as="geometry"/>
                </mxCell>
                <mxCell id="7" value="Stack" style="text;html=1;strokeColor=none;fillColor=none;align=center;verticalAlign=middle;whiteSpace=wrap;rounded=0;fontSize=27;" vertex="1" parent="1">
                    <mxGeometry x="105" y="10" width="130" height="20" as="geometry"/>
                </mxCell>
                <mxCell id="12" style="edgeStyle=orthogonalEdgeStyle;html=1;exitX=1;exitY=0.5;exitDx=0;exitDy=0;labelBackgroundColor=none;fontSize=18;endArrow=open;endFill=0;endSize=16;entryX=0;entryY=0.5;entryDx=0;entryDy=0;" edge="1" parent="1" source="8" target="17">
                    <mxGeometry relative="1" as="geometry">
                        <mxPoint x="490" y="310" as="targetPoint"/>
                    </mxGeometry>
                </mxCell>
                <mxCell id="8" value="block pointer" style="rounded=0;whiteSpace=wrap;html=1;fontSize=18;" vertex="1" parent="1">
                    <mxGeometry x="350" y="290" width="140" height="40" as="geometry"/>
                </mxCell>
                <mxCell id="11" value="block&lt;br&gt;added" style="edgeStyle=orthogonalEdgeStyle;html=1;exitX=0;exitY=0.5;exitDx=0;exitDy=0;labelBackgroundColor=none;fontSize=18;endArrow=open;endFill=0;endSize=16;entryX=1;entryY=0.5;entryDx=0;entryDy=0;" edge="1" parent="1" source="10" target="23">
                    <mxGeometry relative="1" as="geometry">
                        <mxPoint x="225" y="70" as="targetPoint"/>
                    </mxGeometry>
                </mxCell>
                <mxCell id="20" style="edgeStyle=orthogonalEdgeStyle;html=1;exitX=1;exitY=0.5;exitDx=0;exitDy=0;entryX=0;entryY=0.5;entryDx=0;entryDy=0;labelBackgroundColor=none;fontSize=18;endArrow=open;endFill=0;endSize=16;" edge="1" parent="1" source="10" target="16">
                    <mxGeometry relative="1" as="geometry"/>
                </mxCell>
                <mxCell id="10" value="block pointer" style="rounded=0;whiteSpace=wrap;html=1;fontSize=18;" vertex="1" parent="1">
                    <mxGeometry x="330" y="50" width="140" height="40" as="geometry"/>
                </mxCell>
                <mxCell id="14" style="edgeStyle=orthogonalEdgeStyle;html=1;exitX=0;exitY=0;exitDx=0;exitDy=57.5;exitPerimeter=0;labelBackgroundColor=none;fontSize=18;endArrow=open;endFill=0;endSize=16;entryX=1;entryY=0.144;entryDx=0;entryDy=0;entryPerimeter=0;" edge="1" parent="1" source="13">
                    <mxGeometry relative="1" as="geometry">
                        <mxPoint x="710" y="98.87999999999965" as="targetPoint"/>
                    </mxGeometry>
                </mxCell>
                <mxCell id="13" value="Secondary&lt;br&gt;Storage" style="shape=cylinder3;whiteSpace=wrap;html=1;boundedLbl=1;backgroundOutline=1;size=15;fontSize=18;" vertex="1" parent="1">
                    <mxGeometry x="800" y="90" width="170" height="240" as="geometry"/>
                </mxCell>
                <mxCell id="16" value="" style="rounded=0;whiteSpace=wrap;html=1;fontSize=18;fillColor=#a20025;fontColor=#ffffff;strokeColor=#000000;" vertex="1" parent="1">
                    <mxGeometry x="540" y="80" width="170" height="20" as="geometry"/>
                </mxCell>
                <mxCell id="18" style="edgeStyle=orthogonalEdgeStyle;html=1;exitX=1;exitY=0.5;exitDx=0;exitDy=0;entryX=0;entryY=0;entryDx=0;entryDy=180;entryPerimeter=0;labelBackgroundColor=none;fontSize=18;endArrow=open;endFill=0;endSize=16;" edge="1" parent="1" source="17" target="13">
                    <mxGeometry relative="1" as="geometry"/>
                </mxCell>
                <mxCell id="17" value="" style="rounded=0;whiteSpace=wrap;html=1;fontSize=18;fillColor=#a20025;fontColor=#ffffff;strokeColor=#000000;" vertex="1" parent="1">
                    <mxGeometry x="540" y="300" width="170" height="20" as="geometry"/>
                </mxCell>
                <mxCell id="22" value="block&lt;br&gt;evicted" style="edgeStyle=orthogonalEdgeStyle;html=1;exitX=1;exitY=0.5;exitDx=0;exitDy=0;entryX=0;entryY=0.5;entryDx=0;entryDy=0;labelBackgroundColor=none;fontSize=18;endArrow=open;endFill=0;endSize=16;" edge="1" parent="1" source="21" target="8">
                    <mxGeometry relative="1" as="geometry"/>
                </mxCell>
                <mxCell id="21" value="least recently used" style="rounded=0;whiteSpace=wrap;html=1;fontSize=18;" vertex="1" parent="1">
                    <mxGeometry x="100" y="290" width="140" height="40" as="geometry"/>
                </mxCell>
                <mxCell id="23" value="most recently used" style="rounded=0;whiteSpace=wrap;html=1;fontSize=18;" vertex="1" parent="1">
                    <mxGeometry x="100" y="50" width="140" height="40" as="geometry"/>
                </mxCell>
                <mxCell id="24" value="Block Cache" style="text;html=1;strokeColor=none;fillColor=none;align=center;verticalAlign=middle;whiteSpace=wrap;rounded=0;fontSize=27;" vertex="1" parent="1">
                    <mxGeometry x="525" y="10" width="200" height="20" as="geometry"/>
                </mxCell>
                <mxCell id="25" value="" style="rounded=0;whiteSpace=wrap;html=1;fontSize=18;fillColor=#1ba1e2;fontColor=#ffffff;strokeColor=#000000;" vertex="1" parent="1">
                    <mxGeometry x="540" y="320" width="170" height="20" as="geometry"/>
                </mxCell>
                <mxCell id="27" value="" style="rounded=0;whiteSpace=wrap;html=1;fontSize=18;fillColor=#a20025;fontColor=#ffffff;strokeColor=#000000;" vertex="1" parent="1">
                    <mxGeometry x="540" y="280" width="170" height="20" as="geometry"/>
                </mxCell>
                <mxCell id="28" value="" style="rounded=0;whiteSpace=wrap;html=1;fontSize=18;fillColor=#1ba1e2;fontColor=#ffffff;strokeColor=#000000;" vertex="1" parent="1">
                    <mxGeometry x="540" y="260" width="170" height="20" as="geometry"/>
                </mxCell>
                <mxCell id="29" value="" style="rounded=0;whiteSpace=wrap;html=1;fontSize=18;fillColor=#a20025;fontColor=#ffffff;strokeColor=#000000;" vertex="1" parent="1">
                    <mxGeometry x="540" y="240" width="170" height="20" as="geometry"/>
                </mxCell>
                <mxCell id="31" value="" style="rounded=0;whiteSpace=wrap;html=1;fontSize=18;fillColor=#1ba1e2;fontColor=#ffffff;strokeColor=#000000;" vertex="1" parent="1">
                    <mxGeometry x="540" y="200" width="170" height="20" as="geometry"/>
                </mxCell>
                <mxCell id="32" value="" style="rounded=0;whiteSpace=wrap;html=1;fontSize=18;fillColor=#a20025;fontColor=#ffffff;strokeColor=#000000;" vertex="1" parent="1">
                    <mxGeometry x="540" y="220" width="170" height="20" as="geometry"/>
                </mxCell>
                <mxCell id="33" value="" style="rounded=0;whiteSpace=wrap;html=1;fontSize=18;fillColor=#1ba1e2;fontColor=#ffffff;strokeColor=#000000;" vertex="1" parent="1">
                    <mxGeometry x="540" y="180" width="170" height="20" as="geometry"/>
                </mxCell>
                <mxCell id="34" value="" style="rounded=0;whiteSpace=wrap;html=1;fontSize=18;fillColor=#a20025;fontColor=#ffffff;strokeColor=#000000;" vertex="1" parent="1">
                    <mxGeometry x="540" y="160" width="170" height="20" as="geometry"/>
                </mxCell>
                <mxCell id="35" value="" style="rounded=0;whiteSpace=wrap;html=1;fontSize=18;fillColor=#a20025;fontColor=#ffffff;strokeColor=#000000;" vertex="1" parent="1">
                    <mxGeometry x="540" y="140" width="170" height="20" as="geometry"/>
                </mxCell>
                <mxCell id="36" value="" style="rounded=0;whiteSpace=wrap;html=1;fontSize=18;fillColor=#1ba1e2;fontColor=#ffffff;strokeColor=#000000;" vertex="1" parent="1">
                    <mxGeometry x="540" y="120" width="170" height="20" as="geometry"/>
                </mxCell>
                <mxCell id="37" value="" style="rounded=0;whiteSpace=wrap;html=1;fontSize=18;fillColor=#1ba1e2;fontColor=#ffffff;strokeColor=#000000;" vertex="1" parent="1">
                    <mxGeometry x="540" y="100" width="170" height="20" as="geometry"/>
                </mxCell>
                <mxCell id="38" value="" style="rounded=0;whiteSpace=wrap;html=1;fontSize=18;fillColor=#1ba1e2;fontColor=#ffffff;strokeColor=#000000;" vertex="1" parent="1">
                    <mxGeometry x="540" y="60" width="170" height="20" as="geometry"/>
                </mxCell>
                <mxCell id="39" value="" style="rounded=0;whiteSpace=wrap;html=1;fontSize=18;fillColor=#1ba1e2;fontColor=#ffffff;strokeColor=#000000;" vertex="1" parent="1">
                    <mxGeometry x="540" y="40" width="170" height="20" as="geometry"/>
                </mxCell>
            </root>
        </mxGraphModel>
    </diagram>
</mxfile>